<svg width="24" height="24" viewBox="0 0 24 24" fill="none" xmlns="http://www.w3.org/2000/svg">
<circle cx="12" cy="12" r="10" fill="black"/>
<path d="M14.8143 10.6066C14.8143 10.6836 14.8337 10.7414 14.8725 10.7799L14.9598 10.9099C15.2797 10.7462 15.7063 10.6644 16.2396 10.6644C16.9667 10.6644 17.5775 10.8954 18.072 11.3575C18.5956 11.8773 18.8574 12.5174 18.8574 13.2778C18.8574 14.2597 18.5471 15.0201 17.9266 15.5592C17.3158 16.0982 16.5062 16.3677 15.4979 16.3677C14.4992 16.3677 13.6606 16.0164 12.9819 15.3137C13.3115 14.7554 13.4763 14.0383 13.4763 13.1623C13.4763 12.6521 13.3552 12.1612 13.1128 11.6896C12.8704 11.2083 12.5698 10.8184 12.2111 10.52C12.4923 9.65368 12.977 8.97505 13.6654 8.48413C14.2859 8.02209 14.9743 7.79107 15.7306 7.79107C16.4965 7.79107 17.0976 7.94027 17.5339 8.23867C17.9702 8.52745 18.1884 8.94617 18.1884 9.49485C18.1884 9.86063 18.0914 10.1783 17.8975 10.4478C17.4903 10.159 16.9425 10.0146 16.2541 10.0146C15.8275 10.0146 15.4785 10.0676 15.207 10.1735C14.9452 10.2697 14.8143 10.4141 14.8143 10.6066ZM8.28441 10.3756C8.28441 10.4719 8.29895 10.5393 8.32804 10.5778C8.36682 10.6066 8.4056 10.65 8.44438 10.7077C8.78373 10.5056 9.25396 10.4045 9.85508 10.4045C10.6404 10.4045 11.3143 10.674 11.8766 11.2131C12.4486 11.7521 12.7346 12.45 12.7346 13.3067C12.7346 14.3752 12.3953 15.2126 11.7166 15.8191C11.0379 16.4159 10.175 16.7143 9.12792 16.7143C7.89659 16.7143 6.92219 16.3004 6.20472 15.4725C5.49695 14.6447 5.14307 13.5907 5.14307 12.3104C5.14307 10.7222 5.57936 9.46116 6.45196 8.52745C7.2276 7.69962 8.19715 7.28571 9.36061 7.28571C10.1653 7.28571 10.8052 7.44935 11.2803 7.77663C11.7554 8.09428 11.9929 8.55632 11.9929 9.16276C11.9929 9.61517 11.8766 9.97615 11.6439 10.2457C11.1106 9.91839 10.5629 9.75475 10.0005 9.75475C9.44787 9.75475 9.02127 9.80769 8.72071 9.91358C8.42984 10.0195 8.28441 10.1735 8.28441 10.3756Z" fill="white"/>
</svg>
