<svg width="20" height="20" viewBox="0 0 20 20" fill="none" xmlns="http://www.w3.org/2000/svg">
<g clip-path="url(#clip0_809_10917)">
<path d="M15.5535 5.00498C14.5023 4.52873 13.3926 4.19086 12.2526 4C12.0966 4.27595 11.9555 4.55987 11.8298 4.85056C10.6155 4.66949 9.38069 4.66949 8.16642 4.85056C8.04065 4.5599 7.8995 4.27598 7.74358 4C6.6029 4.19247 5.49241 4.53114 4.44013 5.00747C2.3511 8.066 1.78479 11.0486 2.06794 13.9888C3.29134 14.8833 4.66066 15.5635 6.11639 16C6.44418 15.5637 6.73423 15.1009 6.98347 14.6164C6.51008 14.4415 6.05318 14.2256 5.61805 13.9714C5.73257 13.8892 5.84457 13.8045 5.9528 13.7223C7.21892 14.3115 8.60084 14.617 9.99999 14.617C11.3991 14.617 12.7811 14.3115 14.0472 13.7223C14.1567 13.8107 14.2687 13.8954 14.3819 13.9714C13.946 14.226 13.4882 14.4423 13.014 14.6177C13.2629 15.1019 13.553 15.5644 13.8811 16C15.338 15.5653 16.7084 14.8853 17.932 13.99C18.2643 10.5803 17.3645 7.62516 15.5535 5.00498ZM7.34213 12.1806C6.55308 12.1806 5.9012 11.472 5.9012 10.6002C5.9012 9.72852 6.53043 9.0137 7.33961 9.0137C8.1488 9.0137 8.79565 9.72852 8.7818 10.6002C8.76796 11.472 8.14628 12.1806 7.34213 12.1806ZM12.6578 12.1806C11.8675 12.1806 11.2182 11.472 11.2182 10.6002C11.2182 9.72852 11.8474 9.0137 12.6578 9.0137C13.4683 9.0137 14.1101 9.72852 14.0963 10.6002C14.0824 11.472 13.462 12.1806 12.6578 12.1806Z" fill="black"/>
</g>
<defs>
<clipPath id="clip0_809_10917">
<rect x="2" y="4" width="16" height="12" rx="4" fill="white"/>
</clipPath>
</defs>
</svg>
