<svg width="20" height="20" viewBox="0 0 20 20" fill="none" xmlns="http://www.w3.org/2000/svg">
<circle cx="10" cy="10" r="7" fill="#FF7F50"/>
<circle cx="9.99994" cy="10.8" r="5" fill="#FF7F50"/>
<path d="M11.6365 9.05799C11.6365 9.10673 11.6476 9.14445 11.6698 9.17116C11.6745 9.17679 11.6793 9.18234 11.6834 9.18841V9.18841C11.7147 9.23509 11.7759 9.2505 11.8279 9.22912C12.0398 9.14199 12.3086 9.09842 12.6342 9.09842C13.1432 9.09842 13.5708 9.26013 13.9169 9.58356C14.2834 9.94742 14.4666 10.3955 14.4666 10.9278C14.4666 11.6151 14.2495 12.1474 13.8151 12.5248C13.3875 12.9021 12.8208 13.0908 12.115 13.0908C11.9772 13.0908 11.8437 13.0812 11.7146 13.0621C10.8008 12.9268 10.6999 11.7707 10.6999 10.847V10.847C10.6999 10.4898 10.6151 10.1462 10.4454 9.81603V9.81603C10.1626 9.25449 9.90524 8.57325 10.2959 8.08061C10.449 7.8875 10.6278 7.71804 10.8323 7.57223C11.2666 7.2488 11.7485 7.08709 12.2779 7.08709C12.814 7.08709 13.2348 7.19153 13.5402 7.40041C13.8456 7.60255 13.9983 7.89566 13.9983 8.27973V8.27973C13.9983 8.67225 13.5274 8.75662 13.1414 8.68557C12.9893 8.65759 12.8237 8.64359 12.6444 8.64359C12.3457 8.64359 12.1014 8.68065 11.9114 8.75477C11.7281 8.82215 11.6365 8.92323 11.6365 9.05799ZM7.06558 8.89627C7.06558 8.95348 7.07291 8.99611 7.08759 9.02418C7.09253 9.03363 7.09864 9.03937 7.10679 9.04624V9.04624C7.15251 9.08475 7.21761 9.1043 7.27161 9.07867C7.49941 8.97055 7.79723 8.91649 8.16505 8.91649C8.71478 8.91649 9.18647 9.10516 9.58011 9.48249C9.98053 9.85983 10.1807 10.3483 10.1807 10.948C10.1807 11.696 9.9432 12.2822 9.46812 12.7067C8.99304 13.1245 8.38901 13.3333 7.65603 13.3333C6.7941 13.3333 6.11203 13.0436 5.6098 12.4641C5.11436 11.8846 4.86664 11.1468 4.86664 10.2506C4.86664 9.13885 5.17205 8.25615 5.78286 7.60255C6.32581 7.02307 7.0045 6.73333 7.81892 6.73333C8.38223 6.73333 8.83016 6.84788 9.16271 7.07698C9.49527 7.29934 9.66155 7.62277 9.66155 8.04727V8.04727C9.66155 8.51662 9.12648 8.59476 8.66644 8.50171C8.53443 8.47501 8.40123 8.46166 8.26685 8.46166C7.88 8.46166 7.58138 8.49872 7.37099 8.57284C7.16738 8.64696 7.06558 8.75477 7.06558 8.89627Z" fill="white"/>
</svg>
